<svg xmlns="http://www.w3.org/2000/svg" viewBox="0 0 32 32"><title>Artboard-34</title><g id="Guide_book" data-name="Guide book"><path d="M6,30a2.0027,2.0027,0,0,1-2-2V4A2.0027,2.0027,0,0,1,6,2H28V30Z" style="fill:#39c3fc"/><path d="M6,2A2.0027,2.0027,0,0,0,4,4V28a2.0027,2.0027,0,0,0,2,2H8V2Z" style="fill:#2594ef"/><path d="M23.4775,11.5781a5.8077,5.8077,0,0,0-4.8418-3.55C18.4268,8.01,18.2139,8,18,8s-.4277.01-.6367.0283a5.8075,5.8075,0,0,0-4.8408,3.55,6.3052,6.3052,0,0,0,.7841,6.3877L18,24l4.6934-6.0342A6.3052,6.3052,0,0,0,23.4775,11.5781Z" style="fill:#fb5968"/><circle cx="18" cy="14" r="2" style="fill:#d8304c"/><path d="M28,1H6A3.0033,3.0033,0,0,0,3,4V28a3.0033,3.0033,0,0,0,3,3H28a1,1,0,0,0,1-1V2A1,1,0,0,0,28,1ZM5,28V4A1.0006,1.0006,0,0,1,6,3H7V29H6A1.0006,1.0006,0,0,1,5,28Zm22,1H9V3H27Z" style="fill:#302b38"/><path d="M18,17a3,3,0,1,0-3-3A3.0033,3.0033,0,0,0,18,17Zm0-4a1,1,0,1,1-1,1A1.0006,1.0006,0,0,1,18,13Z" style="fill:#302b38"/><path d="M12.5176,18.58,15.9554,23H14a1,1,0,0,0,0,2h8a1,1,0,0,0,0-2H20.0446l3.4378-4.42a7.3041,7.3041,0,0,0,.9121-7.4,6.7928,6.7928,0,0,0-5.6689-4.1475,8.2091,8.2091,0,0,0-1.4522,0A6.7926,6.7926,0,0,0,11.6055,11.18,7.3041,7.3041,0,0,0,12.5176,18.58Zm.9219-6.6035a4.8208,4.8208,0,0,1,4.0126-2.9522C17.6318,9.0088,17.8154,9,18,9s.3682.0088.5469.0244a4.8209,4.8209,0,0,1,4.0136,2.9522,5.3067,5.3067,0,0,1-.6562,5.375L18,22.3711l-3.9043-5.0195A5.3067,5.3067,0,0,1,13.44,11.9766Z" style="fill:#302b38"/></g></svg>