<svg xmlns="http://www.w3.org/2000/svg" viewBox="0 0 32 32"><title>Artboard-29</title><g id="Compass"><circle cx="16" cy="16" r="14" style="fill:#39c3fc"/><polygon points="22 10 19 19 10 22 13 13 22 10" style="fill:#2594ef"/><polygon points="22 10 19 19 13 13 22 10" style="fill:#1974d8"/><path d="M16,1A15,15,0,1,0,31,16,15.0164,15.0164,0,0,0,16,1Zm0,28A13,13,0,1,1,29,16,13.015,13.015,0,0,1,16,29Z" style="fill:#302b38"/><path d="M21.6836,9.0518l-9,3a1.0569,1.0569,0,0,0-.6318.6318l-3,9A1,1,0,0,0,10,23a.9838.9838,0,0,0,.3164-.0518l9-3a1.0569,1.0569,0,0,0,.6318-.6318l3-9a.9994.9994,0,0,0-1.2646-1.2646ZM11.5811,20.4189l1.8564-5.5673,3.7109,3.7109Zm6.9814-3.2705-3.7109-3.7109,5.5673-1.8564Z" style="fill:#302b38"/><path d="M16,7a1,1,0,0,0,1-1V5a1,1,0,0,0-2,0V6A1,1,0,0,0,16,7Z" style="fill:#302b38"/><path d="M27,15H26a1,1,0,0,0,0,2h1a1,1,0,0,0,0-2Z" style="fill:#302b38"/><path d="M16,25a1,1,0,0,0-1,1v1a1,1,0,0,0,2,0V26A1,1,0,0,0,16,25Z" style="fill:#302b38"/><path d="M6,15H5a1,1,0,0,0,0,2H6a1,1,0,0,0,0-2Z" style="fill:#302b38"/></g></svg>