<svg xmlns="http://www.w3.org/2000/svg" viewBox="0 0 32 32"><title>Artboard-30</title><g id="Phone"><rect x="7" y="2" width="18" height="28" rx="2" ry="2" style="fill:#39c3fc"/><path d="M9,30a2.0027,2.0027,0,0,1-2-2V24H25v4a2.0027,2.0027,0,0,1-2,2Z" style="fill:#2594ef"/><polygon points="16 14.999 11.002 18.999 16 7 21 19 16 14.999" style="fill:#2594ef"/><path d="M11.625,19.7813,16,16.28l4.375,3.501a1,1,0,0,0,1.5479-1.1661l-5-12a1,1,0,0,0-1.8458,0l-5,12a1,1,0,0,0,1.5479,1.1661ZM16,9.6l2.5742,6.18-1.9492-1.56a1.0021,1.0021,0,0,0-1.25,0l-1.9492,1.56Z" style="fill:#302b38"/><path d="M23,1H9A3.0033,3.0033,0,0,0,6,4V28a3.0033,3.0033,0,0,0,3,3H23a3.0033,3.0033,0,0,0,3-3V4A3.0033,3.0033,0,0,0,23,1ZM9,3H23a1.0006,1.0006,0,0,1,1,1V23H8V4A1.0006,1.0006,0,0,1,9,3ZM23,29H9a1.0006,1.0006,0,0,1-1-1V25H24v3A1.0006,1.0006,0,0,1,23,29Z" style="fill:#302b38"/><path d="M17,26H15a1,1,0,0,0,0,2h2a1,1,0,0,0,0-2Z" style="fill:#302b38"/></g></svg>